<?xml version="1.0" encoding="utf-8"?>
<!-- Generator: Adobe Illustrator 23.0.1, SVG Export Plug-In . SVG Version: 6.00 Build 0)  -->
<svg version="1.1" id="Layer_1" xmlns="http://www.w3.org/2000/svg" xmlns:xlink="http://www.w3.org/1999/xlink" x="0px" y="0px"
	 width="1305px" height="485px" viewBox="0 0 1305 485" style="enable-background:new 0 0 1305 485;" xml:space="preserve">
<style type="text/css">
	.st0{clip-path:url(#SVGID_2_);fill:url(#SVGID_3_);}
	.st1{clip-path:url(#SVGID_5_);fill:url(#SVGID_6_);}
</style>
<g id="player">
	<g id="top">
		<g>
			<defs>
				<rect id="SVGID_1_" x="45" y="45" width="1215" height="215"/>
			</defs>
			<clipPath id="SVGID_2_">
				<use xlink:href="#SVGID_1_"  style="overflow:visible;"/>
			</clipPath>
			
				<linearGradient id="SVGID_3_" gradientUnits="userSpaceOnUse" x1="45.1" y1="244.1458" x2="1259.9" y2="244.1458" gradientTransform="matrix(1 0 0 -1 0 486.6458)">
				<stop  offset="0" style="stop-color:#66ffd1;stop-opacity:0.5"/>
				<stop  offset="1" style="stop-color:#66ffd1"/>
			</linearGradient>
			<path class="st0" d="M168.7,115c-68.2,0-123.6,56.7-123.6,124.8V260v180h53.2v-98.7c20,13.9,44.3,23.7,70.4,23.7
				c61.3,0,112.3-46.4,122-105c1.1-6.6,1.7-13.3,1.7-20.2C292.3,171.7,236.9,115,168.7,115z M168.7,310.3
				c-31.8,0-58.8-21.2-67.5-50.3c-1.9-6.4-3-13.2-3-20.2c0-38.8,31.6-70.5,70.5-70.5c38.8,0,70.5,31.6,70.5,70.5c0,7-1,13.8-3,20.2
				C227.5,289,200.6,310.3,168.7,310.3z M531.2,115c-68.2,0-123.6,56.7-123.6,124.8c0,6.9,0.6,13.6,1.7,20.2
				c9.7,58.6,60.7,105,121.9,105c26.2,0,50.5-9.7,70.5-23.7V360h53.2V260v-20.2C654.8,171.7,599.3,115,531.2,115z M531.2,310.3
				c-31.8,0-58.8-21.2-67.5-50.3c-1.9-6.4-3-13.2-3-20.2c0-38.8,31.6-70.5,70.5-70.5c38.8,0,70.5,31.6,70.5,70.5c0,7-1,13.8-3,20.2
				C590,289,563,310.3,531.2,310.3z M376.2,45v215v100h-53.1V260V45H376.2z M1259.9,115v54.4c-23.6,0-38.8,7.9-47.6,25
				c-6.8,13.1-7.2,31-7.2,31.2v34.5v100H1152v-100l0,0v-35.7c0-2.7,0.4-30.9,13.1-55.6C1183,134.1,1216.7,115,1259.9,115z
				 M1128,239.8c0-68.2-55.5-124.8-123.6-124.8c-68.2,0-123.6,56.7-123.6,124.8c0,6.9,0.6,13.6,1.7,20.2
				c9.7,58.6,60.7,105,121.9,105c52.7,0,97.8-34.7,115.5-81.3h-60.5c-12.9,16.2-32.8,26.5-55,26.5c-31.8,0-58.8-21.2-67.5-50.3
				h189.4C1127.4,253.4,1128,246.7,1128,239.8z M938.3,216.1c9.7-27.2,35.6-46.7,66.1-46.7c30.5,0,56.5,19.5,66.1,46.7H938.3z
				 M892.7,115l-59,145l-73.3,180H703l35.9-88.2L705.4,260l-53-145H709l53,145l6.8,18.5l7.5-18.5l0,0l59-145H892.7z"/>
		</g>
	</g>
	<g id="bottom">
		<g>
			<defs>
				<rect id="SVGID_4_" x="45" y="260" width="1215" height="180"/>
			</defs>
			<clipPath id="SVGID_5_">
				<use xlink:href="#SVGID_4_"  style="overflow:visible;"/>
			</clipPath>
			
				<linearGradient id="SVGID_6_" gradientUnits="userSpaceOnUse" x1="1259.9" y1="244.1458" x2="45.1" y2="244.1458" gradientTransform="matrix(1 0 0 -1 0 486.6458)">
				<stop  offset="0" style="stop-color:#66ffd1;stop-opacity:0.5"/>
				<stop  offset="1" style="stop-color:#66ffd1"/>
			</linearGradient>
			<path class="st1" d="M168.7,115c-68.2,0-123.6,56.7-123.6,124.8V260v180h53.2v-98.7c20,13.9,44.3,23.7,70.4,23.7
				c61.3,0,112.3-46.4,122-105c1.1-6.6,1.7-13.3,1.7-20.2C292.3,171.7,236.9,115,168.7,115z M168.7,310.3
				c-31.8,0-58.8-21.2-67.5-50.3c-1.9-6.4-3-13.2-3-20.2c0-38.8,31.6-70.5,70.5-70.5c38.8,0,70.5,31.6,70.5,70.5c0,7-1,13.8-3,20.2
				C227.5,289,200.6,310.3,168.7,310.3z M531.2,115c-68.2,0-123.6,56.7-123.6,124.8c0,6.9,0.6,13.6,1.7,20.2
				c9.7,58.6,60.7,105,121.9,105c26.2,0,50.5-9.7,70.5-23.7V360h53.2V260v-20.2C654.8,171.7,599.3,115,531.2,115z M531.2,310.3
				c-31.8,0-58.8-21.2-67.5-50.3c-1.9-6.4-3-13.2-3-20.2c0-38.8,31.6-70.5,70.5-70.5c38.8,0,70.5,31.6,70.5,70.5c0,7-1,13.8-3,20.2
				C590,289,563,310.3,531.2,310.3z M376.2,45v215v100h-53.1V260V45H376.2z M1259.9,115v54.4c-23.6,0-38.8,7.9-47.6,25
				c-6.8,13.1-7.2,31-7.2,31.2v34.5v100H1152v-100l0,0v-35.7c0-2.7,0.4-30.9,13.1-55.6C1183,134.1,1216.7,115,1259.9,115z
				 M1128,239.8c0-68.2-55.5-124.8-123.6-124.8c-68.2,0-123.6,56.7-123.6,124.8c0,6.9,0.6,13.6,1.7,20.2
				c9.7,58.6,60.7,105,121.9,105c52.7,0,97.8-34.7,115.5-81.3h-60.5c-12.9,16.2-32.8,26.5-55,26.5c-31.8,0-58.8-21.2-67.5-50.3
				h189.4C1127.4,253.4,1128,246.7,1128,239.8z M938.3,216.1c9.7-27.2,35.6-46.7,66.1-46.7c30.5,0,56.5,19.5,66.1,46.7H938.3z
				 M892.7,115l-59,145l-73.3,180H703l35.9-88.2L705.4,260l-53-145H709l53,145l6.8,18.5l7.5-18.5l0,0l59-145H892.7z"/>
		</g>
	</g>
</g>
</svg>
